<svg width="200" height="200" viewBox="0 0 100 100" fill="none" xmlns="http://www.w3.org/2000/svg">
        <rect width="100" height="100" rx="20" fill="#000000" />

        <rect
          x="2"
          y="2"
          width="96"
          height="96"
          rx="18"
          stroke="#FFFFFF"
          strokeWidth="1.5"
          strokeOpacity="0.15"
          fill="none"
        />

        <path
          d="M55 18 L32 52 L48 52 L40 82 L65 45 L50 45 L58 18 Z"
          fill="#FFFFFF"
          stroke="#FFFFFF"
          strokeWidth="1.5"
          strokeLinejoin="round"
        />

        <path
          d="M52 22 L36 49 L47 49 L42 73 L58 47 L48 47 L53 22 Z"
          fill="#000000"
          fillOpacity="0.5"
        />

        <ellipse
          cx="50"
          cy="50"
          rx="35"
          ry="12"
          stroke="#FFFFFF"
          strokeWidth="0.8"
          strokeOpacity="0.2"
          fill="none"
          transform="rotate(-30 50 50)"
        />
        <ellipse
          cx="50"
          cy="50"
          rx="35"
          ry="12"
          stroke="#FFFFFF"
          strokeWidth="0.8"
          strokeOpacity="0.2"
          fill="none"
          transform="rotate(30 50 50)"
        />
        <ellipse
          cx="50"
          cy="50"
          rx="35"
          ry="12"
          stroke="#FFFFFF"
          strokeWidth="0.8"
          strokeOpacity="0.2"
          fill="none"
          transform="rotate(90 50 50)"
        />

        <circle cx="25" cy="35" r="1.5" fill="#FFFFFF" fillOpacity="0.6" />
        <circle cx="75" cy="65" r="1.5" fill="#FFFFFF" fillOpacity="0.6" />
        <circle cx="30" cy="70" r="1.5" fill="#FFFFFF" fillOpacity="0.6" />
        <circle cx="70" cy="30" r="1.5" fill="#FFFFFF" fillOpacity="0.6" />
        <circle cx="50" cy="18" r="1.5" fill="#FFFFFF" fillOpacity="0.6" />
        <circle cx="50" cy="82" r="1.5" fill="#FFFFFF" fillOpacity="0.6" />

        <circle cx="65" cy="18" r="1.5" fill="#FFFFFF" fillOpacity="0.9" />
        <circle cx="72" cy="28" r="1" fill="#FFFFFF" fillOpacity="0.6" />
        <circle cx="78" cy="40" r="1" fill="#FFFFFF" fillOpacity="0.4" />
        <circle cx="80" cy="52" r="1.2" fill="#FFFFFF" fillOpacity="0.3" />

        <circle cx="35" cy="18" r="1.5" fill="#FFFFFF" fillOpacity="0.9" />
        <circle cx="28" cy="28" r="1" fill="#FFFFFF" fillOpacity="0.6" />
        <circle cx="22" cy="40" r="1" fill="#FFFFFF" fillOpacity="0.4" />
        <circle cx="20" cy="52" r="1.2" fill="#FFFFFF" fillOpacity="0.3" />

        <circle cx="50" cy="50" r="4" fill="#FFFFFF" fillOpacity="0.9" />

        <circle
          cx="50"
          cy="50"
          r="42"
          stroke="#FFFFFF"
          strokeWidth="0.8"
          strokeOpacity="0.12"
          fill="none"
          strokeDasharray="3 5"
        />
</svg>